<?xml version="1.0" encoding="iso-8859-1"?>
<!-- Generator: Adobe Illustrator 19.0.0, SVG Export Plug-In . SVG Version: 6.00 Build 0)  -->
<svg version="1.1" id="Capa_1" xmlns="http://www.w3.org/2000/svg" xmlns:xlink="http://www.w3.org/1999/xlink" x="0px" y="0px"
	 viewBox="0 0 496 496" style="enable-background:new 0 0 496 496;" xml:space="preserve">
<g>
	<path style="fill:#FFA64D;" d="M248,416c-13.232,0-24,10.768-24,24v48h48v-48C272,426.768,261.232,416,248,416z"/>
	<path style="fill:#FFA64D;" d="M312,408c-13.232,0-24,10.768-24,24v48h48v-48C336,418.768,325.232,408,312,408z"/>
	<path style="fill:#FFA64D;" d="M376,400c-13.232,0-24,10.768-24,24v56l48-8v-48C400,410.768,389.232,400,376,400z"/>
	<path style="fill:#FFA64D;" d="M440,384c-13.232,0-24,10.768-24,24v56l48-16v-40C464,394.768,453.232,384,440,384z"/>
	<path style="fill:#FFA64D;" d="M184,408c-13.232,0-24,10.768-24,24v48h48v-48C208,418.768,197.232,408,184,408z"/>
	<path style="fill:#FFA64D;" d="M120,400c-13.232,0-24,10.768-24,24v48l48,8v-56C144,410.768,133.232,400,120,400z"/>
	<path style="fill:#FFA64D;" d="M56,384c-13.232,0-24,10.768-24,24v40l48,16v-56C80,394.768,69.232,384,56,384z"/>
	<path style="fill:#FFA64D;" d="M248,320c-13.232,0-24,10.768-24,24v48h48v-48C272,330.768,261.232,320,248,320z"/>
	<path style="fill:#FFA64D;" d="M312,312c-13.232,0-24,10.768-24,24v48h48v-48C336,322.768,325.232,312,312,312z"/>
	<path style="fill:#FFA64D;" d="M376,304c-13.232,0-24,10.768-24,24v56l48-8v-48C400,314.768,389.232,304,376,304z"/>
	<path style="fill:#FFA64D;" d="M440,288c-13.232,0-24,10.768-24,24v56l48-16v-40C464,298.768,453.232,288,440,288z"/>
	<path style="fill:#FFA64D;" d="M384,208c-13.232,0-24,10.768-24,24v56l48-8v-48C408,218.768,397.232,208,384,208z"/>
	<path style="fill:#FFA64D;" d="M448,192c-13.232,0-24,10.768-24,24v56l48-16v-40C472,202.768,461.232,192,448,192z"/>
	<path style="fill:#FFA64D;" d="M184,312c-13.232,0-24,10.768-24,24v48h48v-48C208,322.768,197.232,312,184,312z"/>
	<path style="fill:#FFA64D;" d="M120,304c-13.232,0-24,10.768-24,24v48l48,8v-56C144,314.768,133.232,304,120,304z"/>
	<path style="fill:#FFA64D;" d="M56,288c-13.232,0-24,10.768-24,24v40l48,16v-56C80,298.768,69.232,288,56,288z"/>
	<path style="fill:#FFA64D;" d="M112,208c-13.232,0-24,10.768-24,24v48l48,8v-56C136,218.768,125.232,208,112,208z"/>
	<path style="fill:#FFA64D;" d="M48,192c-13.232,0-24,10.768-24,24v40l48,16v-56C72,202.768,61.232,192,48,192z"/>
</g>
<g>
	<path style="fill:#333333;" d="M248,0C86.92,0,0,45.336,0,88v320c0,42.664,86.92,88,248,88s248-45.336,248-88V88
		C496,45.336,409.08,0,248,0z M248,16c136.72,0,232,37.944,232,72c0,8.184-5.192,16.344-14.704,24.08
		c-6.456-3.744-13.888-7.344-22.272-10.696l-5.936,14.856c4.688,1.872,9.024,3.816,13.032,5.808
		c-14.864,8.2-34.68,15.624-58.432,21.664C350.344,133.448,300.76,128,248,128s-102.352,5.448-143.688,15.72
		c-23.728-6.04-43.528-13.456-58.392-21.648C87.768,101.208,164.944,88,248,88c65.776,0,129.032,8.256,173.552,22.664l4.92-15.216
		C379.752,80.328,316.368,72,248,72c-92.032,0-174.632,15.336-217.264,40.104C21.208,104.36,16,96.192,16,88
		C16,53.944,111.28,16,248,16z M145.264,152.104c-0.296-0.048-0.568-0.104-0.864-0.152C176.232,146.808,211.776,144,248,144
		s71.768,2.808,103.592,7.952c-0.288,0.048-0.568,0.104-0.856,0.152L344,153.176v56.08c-30.216,4.48-62.48,6.744-96,6.744
		s-65.784-2.264-96-6.744v-56.08L145.264,152.104z M248,480c-136.72,0-232-37.944-232-72v-58.216
		C53.904,382.584,153.272,400,248,400s194.096-17.416,232-50.216V408C480,442.056,384.72,480,248,480z M248,384
		c-136.72,0-232-33.728-232-64v-66.216C53.904,286.584,153.272,304,248,304s194.096-17.416,232-50.216V320
		C480,350.272,384.72,384,248,384z M288,286.992C275.12,287.64,261.784,288,248,288s-27.12-0.36-40-1.008V264h80V286.992z
		 M304,286.016V248H192v38.016C85.976,278.392,16,249.936,16,224V120.208c21.216,20.24,62.76,36.688,120,46.576v56.16l6.736,1.08
		C175.712,229.312,211.136,232,248,232s72.288-2.688,105.264-7.984l6.736-1.2v-56.04c57.24-9.888,98.784-26.336,120-46.576V224
		C480,249.936,410.024,278.392,304,286.016z"/>
	<rect x="240" y="32" style="fill:#333333;" width="16" height="24"/>
	<rect x="320" y="40" style="fill:#333333;" width="16" height="24"/>
	<rect x="400" y="56" style="fill:#333333;" width="16" height="24"/>
	<rect x="160" y="40" style="fill:#333333;" width="16" height="24"/>
	<rect x="80" y="56" style="fill:#333333;" width="16" height="24"/>
</g>
<g>
</g>
<g>
</g>
<g>
</g>
<g>
</g>
<g>
</g>
<g>
</g>
<g>
</g>
<g>
</g>
<g>
</g>
<g>
</g>
<g>
</g>
<g>
</g>
<g>
</g>
<g>
</g>
<g>
</g>
</svg>
