<svg id="Capa_1" enable-background="new 0 0 512.033 512.033" height="512" viewBox="0 0 512.033 512.033" width="512" xmlns="http://www.w3.org/2000/svg"><g><g><path d="m504.519 194.227v39.521l-3.771-1.945c-8.808-4.559-17.676-8.858-26.604-12.898-69.556-31.531-142.385-47.492-216.919-47.492-89.756 0-165.507 22.693-219.343 45.786-9.835 4.219-18.933 8.449-27.252 12.559l-3.112 1.536v-39.432c8.359-4.1 18.404-8.708 29.975-13.456 48.669-20.01 124.519-42.813 217.338-42.813 74.973 0 148.619 15.082 219.373 44.878 10.165 4.279 20.27 8.868 30.315 13.756z" fill="#fedba6"/><path d="m294.647 137.021c-74.56 5.28-135.71 24.35-177.15 41.39-11.57 4.74-21.62 9.35-29.98 13.45v6.71c-18.12 5.87-34.72 12.23-49.63 18.63-9.84 4.22-18.94 8.45-27.26 12.56l-3.11 1.53v-39.43c8.36-4.1 18.41-8.71 29.98-13.45 48.67-20.01 124.52-42.82 217.34-42.82 13.31 0 26.59.48 39.81 1.43z" fill="#fece85"/><g fill="#e19974"><path d="m504.517 324.606h-30.445v-142.767c0-3.617 1.261-6.939 3.368-9.551 2.79-3.459 7.064-5.672 11.854-5.672 8.407 0 15.223 6.815 15.223 15.223z"/><path d="m7.517 288.943h30.445v-107.104c0-3.617-1.261-6.939-3.368-9.551-2.79-3.459-7.064-5.672-11.854-5.672-8.407 0-15.223 6.815-15.223 15.223z"/><path d="m240.806 242.554h30.445v-129.089c0-3.617-1.261-6.939-3.368-9.551-2.79-3.459-7.064-5.672-11.854-5.672-8.407 0-15.223 6.815-15.223 15.223z"/><path d="m113.894 270.071h30.445v-137.232c0-3.617-1.261-6.939-3.368-9.551-2.79-3.459-7.064-5.672-11.854-5.672-8.407 0-15.223 6.815-15.223 15.223z"/><path d="m398.139 270.071h-30.445v-137.232c0-3.617 1.261-6.939 3.368-9.551 2.79-3.459 7.064-5.672 11.854-5.672 8.407 0 15.223 6.815 15.223 15.223z"/></g><path d="m7.517 281.212v92.045l7.5 5h482.667l6.833-5v-89.885c-244.342-134.507-455.978-25.96-497-2.16z" fill="#fedba6"/><path d="m279.877 217.911c-81.448 4.079-147.214 27.238-187.136 45.337-21.455 9.727-35.224 31.106-35.224 54.663v55.35h-50v-92.05c27.59-16.01 132.36-70.35 272.36-63.3z" fill="#fedba6"/><path d="m313.403 373.257h-114.748v-64.314c0-31.687 25.687-57.374 57.374-57.374 31.687 0 57.374 25.687 57.374 57.374z" fill="#fedba6"/><path d="m271.027 253.561c-24.41 6.59-42.37 28.89-42.37 55.38v64.32h-30v-64.32c0-31.68 25.69-57.37 57.37-57.37 5.19 0 10.22.69 15 1.99z" fill="#fece85"/><path d="m256.029 281.569c-15.094 0-27.374 12.28-27.374 27.375v64.314h54.748v-64.314c0-15.095-12.28-27.375-27.374-27.375z" fill="#e19974"/><path d="m266.027 283.471c-10.16 3.99-17.37 13.91-17.37 25.47v64.32h-20v-64.32c0-15.09 12.28-27.37 27.37-27.37 3.53 0 6.9.67 10 1.9z" fill="#dc8758"/><path d="m160.437 338.091v35.17h-114.75v-35.17c0-31.68 25.69-57.37 57.37-57.37 8.87 0 17.27 2.01 24.76 5.61 5.9 2.82 11.24 6.62 15.81 11.19 10.39 10.39 16.81 24.73 16.81 40.57z" fill="#fedba6"/><path d="m118.047 282.711c-24.4 6.59-42.36 28.89-42.36 55.38v35.17h-30v-35.17c0-31.68 25.69-57.37 57.37-57.37 5.19 0 10.21.69 14.99 1.99z" fill="#fece85"/><path d="m130.437 338.091v35.17h-54.75v-35.17c0-15.09 12.28-27.37 27.37-27.37 2.98 0 5.86.48 8.55 1.37 10.92 3.59 18.83 13.89 18.83 26z" fill="#e19974"/><path d="m113.057 312.621c-10.16 4-17.37 13.91-17.37 25.47v35.17h-20v-35.17c0-15.09 12.28-27.37 27.37-27.37 2.98 0 5.86.48 8.55 1.37.49.16.97.33 1.45.53z" fill="#dc8758"/><path d="m466.371 373.257h-114.748v-35.162c0-31.687 25.687-57.374 57.374-57.374 31.687 0 57.374 25.687 57.374 57.374z" fill="#fedba6"/><path d="m423.997 282.711c-24.41 6.59-42.37 28.89-42.37 55.38v35.17h-30v-35.17c0-31.68 25.68-57.37 57.37-57.37 5.19 0 10.22.69 15 1.99z" fill="#fece85"/><path d="m408.997 310.72c-15.094 0-27.374 12.28-27.374 27.375v35.162h54.748v-35.162c0-15.094-12.28-27.375-27.374-27.375z" fill="#e19974"/><path d="m418.997 312.621c-10.16 4-17.37 13.91-17.37 25.47v35.17h-20v-35.17c0-15.09 12.28-27.37 27.37-27.37 3.53 0 6.9.67 10 1.9z" fill="#dc8758"/><path d="m.017 373.242h512v40.548h-512z" fill="#8ac9fe"/><path d="m.017 373.241h71.041v40.55h-71.041z" fill="#60b7ff"/></g><g><path d="m512.011 294.393v-10.977-101.533c0-12.529-10.193-22.723-22.723-22.723-6.903 0-13.352 3.084-17.692 8.463-.739.916-1.392 1.892-1.975 2.905-21.023-8.522-42.495-15.834-63.987-21.795v-15.85c0-12.529-10.193-22.723-22.723-22.723-6.903 0-13.352 3.084-17.692 8.463-3.244 4.021-5.03 9.086-5.03 14.26v5.214c-6.682-1.274-13.409-2.44-20.096-3.465-4.092-.637-7.924 2.181-8.551 6.275-.628 4.095 2.182 7.923 6.275 8.551 7.448 1.143 14.946 2.46 22.371 3.916v20.802c-26.787-5.373-54.124-8.652-81.442-9.773v-20.739c8.922.389 17.921.997 26.771 1.819.236.022.471.033.703.033 3.829 0 7.098-2.919 7.459-6.807.384-4.125-2.649-7.779-6.773-8.162-9.309-.865-18.78-1.502-28.159-1.9v-15.137c0-5.174-1.786-10.238-5.031-14.261-4.34-5.378-10.788-8.462-17.691-8.462-12.529 0-22.723 10.193-22.723 22.723v15.033c-27.187 1.022-54.542 3.998-81.466 8.858v-4.517c0-5.175-1.787-10.239-5.031-14.26-4.339-5.378-10.787-8.463-17.691-8.463-12.529 0-22.723 10.193-22.723 22.723v14.696c-.379.041-.76.101-1.14.202-21.852 5.812-43.32 12.893-63.93 21.053-.288-.41-.578-.82-.894-1.211-4.339-5.378-10.787-8.463-17.691-8.463-12.529 0-22.723 10.193-22.723 22.723v98.018c0 .259.013.516.039.768-.015.195-.039.389-.039.587v92.045c0 4.143 3.357 7.5 7.5 7.5h.001 38.166 30.001 54.748 30 38.22 30 54.748 30 38.221 30 54.748 30 38.146.022c4.143 0 7.5-3.357 7.5-7.5 0-.15-.014-.297-.022-.445v-78.464zm-28.74-117.351c1.478-1.832 3.671-2.882 6.018-2.882 4.258 0 7.723 3.464 7.723 7.723v89c-5.128-2.681-10.277-5.276-15.445-7.784v-81.215c-.002-2.255.926-3.878 1.704-4.842zm-77.638 24.052c20.511 6.242 40.956 13.862 60.933 22.704v32.295c-20.063-9.022-40.397-16.748-60.933-23.153zm60.932-15.61v21.938c-20.016-8.577-40.455-15.945-60.933-21.985v-21.135c20.484 5.847 40.924 12.959 60.933 21.182zm-89.672-57.442c1.478-1.832 3.671-2.882 6.018-2.882 4.258 0 7.723 3.465 7.723 7.723v95.623c-5.137-1.435-10.286-2.792-15.445-4.062v-91.561c-.001-2.254.926-3.877 1.704-4.841zm-16.705 61.447v31.502c-9.807-2.103-19.647-3.913-29.515-5.418-17.201-2.625-34.531-4.326-51.928-5.149v-31.007c27.336 1.155 54.682 4.538 81.443 10.072zm-104.166-83.702c2.347 0 4.54 1.05 6.017 2.881.778.965 1.706 2.588 1.706 4.842v96.412c-5.144-.09-10.293-.089-15.445-.022v-96.39c0-4.259 3.465-7.723 7.722-7.723zm-104.188 83.742c26.969-5.417 54.331-8.787 81.466-10.025v30.809c-18.217.774-36.454 2.509-54.647 5.24-9.222 1.385-18.164 2.979-26.818 4.736v-30.76zm81.466-45.949v20.909c-27.129 1.203-54.48 4.473-81.466 9.741v-21.568c26.906-4.99 54.268-8.033 81.466-9.082zm-104.189-18.419c2.347 0 4.539 1.05 6.017 2.882.778.965 1.706 2.587 1.706 4.841v90.678c-5.271 1.229-10.422 2.513-15.445 3.843v-94.521c0-4.259 3.465-7.723 7.722-7.723zm-83.655 97.036c19.85-8.306 40.302-15.526 60.933-21.513v30.926c-23.713 7.025-44.197 14.887-60.933 22.223zm60.933-59.174v22.053c-20.587 5.806-41.035 12.806-60.933 20.88v-22.623c19.636-7.836 40.093-14.657 60.933-20.31zm-83.656 11.138c2.347 0 4.539 1.05 6.017 2.882.778.964 1.706 2.587 1.706 4.841v78.835c-5.812 2.793-10.968 5.424-15.445 7.804v-86.64c0-4.258 3.465-7.722 7.722-7.722zm60.448 191.64v-27.662c0-10.959 8.915-19.874 19.874-19.874s19.874 8.915 19.874 19.874v27.662zm54.748 0v-27.662c0-19.229-15.645-34.874-34.874-34.874s-34.874 15.645-34.874 34.874v27.662h-15.001v-27.662c0-27.501 22.374-49.874 49.875-49.874s49.874 22.373 49.874 49.874v27.662zm98.219 0v-56.813c0-10.959 8.915-19.875 19.874-19.875s19.874 8.916 19.874 19.875v56.813zm54.748 0v-56.813c0-19.23-15.645-34.875-34.874-34.875s-34.874 15.645-34.874 34.875v56.813h-15v-56.813c0-27.501 22.373-49.875 49.874-49.875s49.874 22.374 49.874 49.875v56.813zm98.221 0v-27.662c0-10.959 8.915-19.874 19.874-19.874s19.874 8.915 19.874 19.874v27.662zm54.748 0v-27.662c0-19.229-15.645-34.874-34.874-34.874s-34.874 15.645-34.874 34.874v27.662h-15v-27.662c0-27.501 22.373-49.874 49.874-49.874s49.874 22.373 49.874 49.874v27.662zm30 0v-27.662c0-35.771-29.103-64.874-64.874-64.874s-64.874 29.103-64.874 64.874v27.662h-23.221v-56.813c0-35.772-29.103-64.875-64.874-64.875s-64.874 29.103-64.874 64.875v56.813h-23.22v-27.662c0-35.771-29.103-64.874-64.874-64.874-35.772 0-64.875 29.103-64.875 64.874v27.662h-23.168v-80.188c47.276-26.487 249.401-123.489 482 2.255v6.524 71.408h-23.146z"/><path d="m504.521 421.247c4.143 0 7.5-3.357 7.5-7.5s-3.357-7.5-7.5-7.5h-357.753c-4.143 0-7.5 3.357-7.5 7.5s3.357 7.5 7.5 7.5z"/><path d="m114.081 406.247h-106.581c-4.143 0-7.5 3.357-7.5 7.5s3.357 7.5 7.5 7.5h106.581c4.143 0 7.5-3.357 7.5-7.5s-3.357-7.5-7.5-7.5z"/></g></g></svg>