<svg id="Layer_1" enable-background="new 0 0 512 512" height="512" viewBox="0 0 512 512" width="512" xmlns="http://www.w3.org/2000/svg"><g><g><g><path d="m421.249 248.756h53.251v180.682h-53.251z" fill="#ecf5ff"/><path d="m444.5 248.756h30v180.682h-30z" fill="#dceafc"/><path d="m489.5 203.756h-83.251v35c0 5.523 4.477 10 10 10h63.251c5.523 0 10-4.477 10-10z" fill="#4f6d8f"/><path d="m459.5 203.756v35c0 5.523-4.477 10-10 10h30c5.523 0 10-4.477 10-10v-35z" fill="#455e7e"/><path d="m479.5 429.437h-63.251c-5.523 0-10 4.477-10 10v35h83.251v-35c0-5.522-4.477-10-10-10z" fill="#4f6d8f"/><path d="m479.5 429.438h-30c5.523 0 10 4.477 10 10v35h30v-35c0-5.523-4.477-10-10-10z" fill="#455e7e"/></g><g><path d="m229.375 248.756h53.251v180.682h-53.251z" fill="#ecf5ff"/><path d="m252.625 248.756h30v180.682h-30z" fill="#dceafc"/><path d="m297.625 203.756h-83.251v35c0 5.523 4.477 10 10 10h63.251c5.523 0 10-4.477 10-10z" fill="#4f6d8f"/><path d="m267.625 203.756v35c0 5.523-4.477 10-10 10h30c5.523 0 10-4.477 10-10v-35z" fill="#455e7e"/><path d="m287.625 429.437h-63.251c-5.523 0-10 4.477-10 10v35h83.251v-35c0-5.522-4.477-10-10-10z" fill="#4f6d8f"/><path d="m287.625 429.438h-30c5.523 0 10 4.477 10 10v35h30v-35c0-5.523-4.477-10-10-10z" fill="#455e7e"/></g><g><path d="m37.5 248.756h53.251v180.682h-53.251z" fill="#ecf5ff"/><path d="m60.751 248.756h30v180.682h-30z" fill="#dceafc"/><path d="m105.751 203.756h-83.251v35c0 5.523 4.477 10 10 10h63.251c5.523 0 10-4.477 10-10z" fill="#4f6d8f"/><path d="m75.751 203.756v35c0 5.523-4.477 10-10 10h30c5.523 0 10-4.477 10-10v-35z" fill="#455e7e"/><path d="m95.751 429.437h-63.251c-5.523 0-10 4.477-10 10v35h83.251v-35c0-5.522-4.477-10-10-10z" fill="#4f6d8f"/><path d="m95.751 429.438h-30c5.523 0 10 4.477 10 10v35h30v-35c0-5.523-4.477-10-10-10z" fill="#455e7e"/></g><path d="m17.5 474.437h477c5.523 0 10 4.487 10 10.021v10.021c0 5.534-4.477 10.021-10 10.021h-477c-5.523 0-10-4.487-10-10.021v-10.021c0-5.534 4.477-10.021 10-10.021z" fill="#bee49d"/><path d="m494.5 474.438h-30c5.523 0 10 4.486 10 10.021v10.021c0 5.534-4.477 10.021-10 10.021h30c5.523 0 10-4.487 10-10.021v-10.021c0-5.535-4.477-10.021-10-10.021z" fill="#a3d8a4"/><g><g><g><path d="" style="fill:none;stroke:#000;stroke-width:15;stroke-linecap:round;stroke-linejoin:round;stroke-miterlimit:10"/></g></g><path d="m245.465 9.411-231.477 86.817c-3.903 1.464-6.488 5.195-6.488 9.363v88.165c0 5.523 4.477 10 10 10h477c5.523 0 10-4.477 10-10v-88.165c0-4.168-2.586-7.899-6.488-9.363l-231.477-86.817c-6.792-2.548-14.278-2.548-21.07 0z" fill="#f6df7f"/><path d="m474.5 87.245v106.511c0 5.523-4.477 10-10 10h30c5.523 0 10-4.477 10-10v-88.165c0-4.168-2.585-7.899-6.488-9.363z" fill="#efd06f"/><circle cx="256" cy="64" fill="#4f6d8f" r="26.705"/><path d="m256 37.295c-5.561 0-10.724 1.701-15 4.61 7.064 4.805 11.705 12.908 11.705 22.095s-4.641 17.291-11.705 22.096c4.276 2.908 9.439 4.61 15 4.61 14.749 0 26.705-11.956 26.705-26.705s-11.956-26.706-26.705-26.706z" fill="#455e7e"/></g></g><path d="m142.279 177.323c4.519 2.887 9.618 4.354 15.155 4.362h.045c4.77 0 9.249-1.038 13.312-3.084 12.814-6.454 15.504-16.227 15.504-23.289v-41.498c0-4.142-3.358-7.5-7.5-7.5s-7.5 3.358-7.5 7.5v41.498c0 2.905-.824 6.655-7.25 9.892-1.986 1-4.13 1.446-6.59 1.481-2.674-.004-4.996-.659-7.1-2.003-4.987-3.186-6.009-6.033-6.009-9.326v-41.542c0-4.142-3.358-7.5-7.5-7.5s-7.5 3.358-7.5 7.5v41.542c0 9.094 4.352 16.485 12.933 21.967zm113.721-147.528c-18.861 0-34.205 15.344-34.205 34.205s15.344 34.205 34.205 34.205c18.86 0 34.205-15.344 34.205-34.205s-15.345-34.205-34.205-34.205zm0 53.41c-10.59 0-19.205-8.615-19.205-19.205s8.615-19.205 19.205-19.205 19.205 8.615 19.205 19.205-8.615 19.205-19.205 19.205zm77.205 23.11c-4.143 0-7.5 3.358-7.5 7.5v41.542c0 9.093 4.352 16.484 12.933 21.967 4.519 2.887 9.618 4.354 15.156 4.362h.044c4.77 0 9.249-1.038 13.313-3.084 12.813-6.454 15.503-16.227 15.503-23.289v-41.498c0-4.142-3.357-7.5-7.5-7.5s-7.5 3.358-7.5 7.5v41.498c0 2.906-.824 6.656-7.25 9.892-1.979.997-4.126 1.481-6.564 1.481h-.024c-2.675-.004-4.997-.659-7.101-2.003-4.987-3.186-6.009-6.032-6.009-9.326v-41.542c-.001-4.142-3.358-7.5-7.501-7.5zm79.329 68.731 6.01-33.295 9.921 33.627c1.118 3.746 4.58 6.308 8.485 6.308h.042c3.833-.018 7.204-2.479 8.389-6.124.071-.219 9.599-33.608 9.657-33.861l6.388 33.421c.777 4.069 4.714 6.737 8.774 5.959 4.068-.777 6.736-4.706 5.958-8.774l-11.256-58.899c-.805-3.941-4.171-6.852-8.187-7.078-4.027-.225-7.688 2.288-8.93 6.113-.079.245-10.859 38.082-10.937 38.348-.081-.268-11.262-38.188-11.343-38.429-1.281-3.816-4.994-6.301-8.997-6.022-4.016.27-7.351 3.218-8.126 7.254l-10.611 58.79c-.735 4.076 1.973 7.977 6.049 8.713 4.074.732 7.979-1.974 8.714-6.051zm-109.329-53.18c4.143 0 7.5-3.358 7.5-7.5s-3.357-7.5-7.5-7.5h-25.206c-4.143 0-7.5 3.358-7.5 7.5v59.82c0 4.142 3.357 7.5 7.5 7.5h25.206c4.143 0 7.5-3.358 7.5-7.5s-3.357-7.5-7.5-7.5h-17.706v-14.91h15.847c4.143 0 7.5-3.358 7.5-7.5s-3.357-7.5-7.5-7.5h-15.847v-14.91zm-73.372 44.82c-6.013 0-11.8-2.424-15.48-6.485-2.781-3.069-7.525-3.303-10.594-.521s-3.303 7.524-.521 10.594c6.476 7.146 16.418 11.413 26.595 11.413 12.7 0 23.365-8.103 25.358-19.266 1.5-8.399-2.315-19.372-17.52-24.98-7.423-2.738-14.333-5.721-16.446-6.646-1.667-1.335-1.611-3.199-1.5-3.975.154-1.074.934-3.7 4.834-4.875 8.515-2.562 16.403 3.647 16.655 3.849 3.171 2.631 7.875 2.211 10.53-.946 2.665-3.171 2.255-7.902-.915-10.567-.569-.478-14.128-11.661-30.597-6.698-8.317 2.505-14.201 9.06-15.355 17.105-1.077 7.506 2.46 16.34 9.579 19.516.349.156 8.662 3.856 18.023 7.31 2.658.98 8.752 3.749 7.945 8.271-.605 3.391-4.732 6.901-10.591 6.901zm-135.062-60.357c-4.024-.224-7.689 2.288-8.931 6.113-.078.24-10.862 38.085-10.937 38.349-.08-.268-11.262-38.189-11.343-38.43-1.281-3.815-4.983-6.297-8.995-6.022-4.015.269-7.351 3.216-8.128 7.254l-10.611 58.79c-.735 4.076 1.973 7.977 6.049 8.713 4.076.734 7.978-1.972 8.713-6.049l6.009-33.295c.055.232 9.934 33.681 10.005 33.893 1.215 3.619 4.588 6.042 8.402 6.042h.045c3.833-.019 7.203-2.481 8.386-6.127.067-.207 9.609-33.612 9.657-33.858l6.387 33.421c.778 4.069 4.707 6.739 8.774 5.959 4.069-.777 6.736-4.706 5.959-8.774l-11.256-58.897c-.803-3.943-4.168-6.855-8.185-7.082zm402.229 132.427v-27.7c8.466-1.22 15-8.502 15-17.3v-88.165c0-7.253-4.563-13.837-11.354-16.385l-231.477-86.818c-8.492-3.185-17.846-3.185-26.338 0l-98.714 37.023c-3.878 1.455-5.843 5.778-4.389 9.656 1.455 3.878 5.777 5.842 9.656 4.389l98.714-37.023c5.095-1.911 10.708-1.911 15.803 0l231.477 86.816c.97.364 1.622 1.305 1.622 2.341v88.165c0 1.378-1.121 2.5-2.5 2.5h-477c-1.378 0-2.5-1.122-2.5-2.5v-88.165c0-1.036.652-1.977 1.622-2.34l99.761-37.416c3.878-1.455 5.843-5.778 4.389-9.656-1.455-3.878-5.777-5.843-9.656-4.389l-99.761 37.416c-6.792 2.548-11.355 9.133-11.355 16.386v88.165c0 8.798 6.534 16.081 15 17.3v27.7c0 8.798 6.534 16.081 15 17.3v166.081c-8.466 1.22-15 8.502-15 17.3v27.7c-8.466 1.221-15 8.512-15 17.321v10.021c0 9.661 7.851 17.521 17.5 17.521h477c9.649 0 17.5-7.86 17.5-17.521v-10.021c0-8.809-6.534-16.1-15-17.321v-27.7c0-8.798-6.534-16.081-15-17.3v-166.081c8.466-1.22 15-8.502 15-17.3zm-191.875 0v-27.5h93.624v27.5c0 8.798 6.534 16.081 15 17.3v87.684c0 4.142 3.357 7.5 7.5 7.5s7.5-3.358 7.5-7.5v-87.484h38.251v165.682h-38.251v-43.198c0-4.142-3.357-7.5-7.5-7.5s-7.5 3.358-7.5 7.5v43.397c-8.466 1.22-15 8.502-15 17.3v27.5h-93.624v-27.5c0-8.798-6.534-16.081-15-17.3v-166.081c8.466-1.22 15-8.502 15-17.3zm174.375 198.181c1.379 0 2.5 1.122 2.5 2.5v27.5h-68.251v-27.5c0-1.378 1.121-2.5 2.5-2.5zm-257.625-225.681h68.25v27.5c0 1.378-1.121 2.5-2.5 2.5h-63.25c-1.378 0-2.5-1.122-2.5-2.5zm65.75 225.681c1.379 0 2.5 1.122 2.5 2.5v27.5h-68.25v-27.5c0-1.378 1.122-2.5 2.5-2.5zm-50.75-15v-165.681h38.25v165.682h-38.25zm-123.624-183.181v-27.5h93.624v27.5c0 8.798 6.534 16.081 15 17.3v166.081c-8.466 1.22-15 8.502-15 17.3v27.5h-93.624v-27.5c0-8.798-6.534-16.081-15-17.3v-166.081c8.466-1.22 15-8.502 15-17.3zm-83.251-27.5h68.25v27.5c0 1.378-1.122 2.5-2.5 2.5h-63.25c-1.378 0-2.5-1.122-2.5-2.5zm53.251 45v165.682h-38.251v-165.682zm-53.251 183.181c0-1.378 1.122-2.5 2.5-2.5h63.25c1.378 0 2.5 1.122 2.5 2.5v27.5h-68.25zm464.5 42.5c1.379 0 2.5 1.131 2.5 2.521v10.021c0 1.39-1.121 2.521-2.5 2.521h-477c-1.378 0-2.5-1.131-2.5-2.521v-10.021c0-1.39 1.122-2.521 2.5-2.521zm-15-240.681h-63.251c-1.379 0-2.5-1.122-2.5-2.5v-27.5h68.251v27.5c0 1.378-1.121 2.5-2.5 2.5z"/></g></svg>