<svg id="Capa_1" enable-background="new 0 0 512 512" height="512" viewBox="0 0 512 512" width="512" xmlns="http://www.w3.org/2000/svg"><g><g><g clip-rule="evenodd" fill-rule="evenodd"><path d="m7.5 114.499h345.999l-50.52-31.562-50.777-9.227-9.33-39.02-24.146-27.19h-22.499z" fill="#adb9c8"/><path d="m7.5 114.499h345.999v60h-345.999z" fill="#e5ecf5"/><path d="m384.5 414.5h75v-82.501l-30-30.001v-27.128l-45-25.372zm-332 0h75v-210.001h-75v120.002l15 30-15 30zm166 0h75v-210.001h-75z" fill="#e5ecf5"/><path d="m7.5 504.5h497v-30h-15v-30.001h-467v30.001h-15z" fill="#e5ecf5"/><path d="m7.5 114.499h30l183.738-104.171-2.512-2.828h-22.499z" fill="#72869e"/><path d="m7.5 114.499h22.5v60h-22.5z" fill="#b0c5e0"/><path d="m52.5 414.5h22.5v-30l15-30-15-30v-120.001h-22.5v120.002l15 30-15 30zm332 0h22.5v-152.316l-22.5-12.686zm-166 0h22.5v-210.001h-22.5z" fill="#b0c5e0"/><path d="m474.5 444.499v-30h-105v30zm-332.001-240v-30h-105v30zm166.001 0v-30h-105v30zm-166.001 240v-30h-105v30zm166.001 0v-30h-105v30z" fill="#adb9c8"/><path d="m392 414.5h-22.5v30h22.5zm-166 0h-22.5v30h22.5zm-166 0h-22.5v30h22.5zm166-240.001h-22.5v30h22.5zm-166 0h-22.5v30h22.5z" fill="#72869e"/><path d="m7.5 504.5h22.5v-30h15v-30.001h-22.5v30.001h-15z" fill="#b0c5e0"/></g><g><path d="m437.001 354.499h-15v-15h15zm-166.001-112.5h-15v-15h15zm-166 0h-15v-15h15zm106.227-196.999h-15v-15h15z" fill="#fff"/></g></g><g><path d="m497 467v-30h-15v-30h-15v-30h-15v30h-60v-144.664l30.001 16.916v25.853l29.999 30v26.895h15v-33.107l-29.999-30v-28.403l-60.001-33.83v170.34h-14.999v30h-46.001v-30h-15v-195.001h15v-30h44.999v-71.658l-55.265-34.527-47.376-8.608-8.63-36.089-27.631-31.117h-27.849l-194.248 110.13v71.869h30v30h15v45h15v-45h60v195.001h-60v-20.729l15.884-31.771-15.884-31.77v-50.732h-15v54.273l14.114 28.229-14.114 28.229v24.271h-15v30h-15v30h-15v45h512v-45zm-119.999-45h89.999v15h-89.999zm-166.001 15v-15h90v15zm75-30h-60v-195.001h60zm15-210.001h-90v-15h90zm-102.795-181.999h17.151l20.659 23.264 10.03 41.95 54.179 9.844 27.115 16.94h-291.404l67.906-38.5h42.772l12 23.5h19.592v-14.998h-10.408l-12-23.5h-25.498zm-183.205 106.999h330.999v45h-330.999zm119.999 60v15h-89.999v-15zm.001 30h14.999v-30h46.001v30h15v195.001h-15v30h-46.001v-30h-14.999zm-90 210.001h89.999v15h-89.999zm452 75h-482v-15h151.001v-15h-136.001v-15h452v15h-300.999v15h315.999z"/><path d="m193.204 77h15v15h-15z"/></g></g></svg>